<svg width="50" height="50" viewBox="0 0 50 50" fill="none" xmlns="http://www.w3.org/2000/svg">
<path d="M41.6666 20.8334C41.6666 33.3334 24.9999 45.8334 24.9999 45.8334C24.9999 45.8334 8.33325 33.3334 8.33325 20.8334C8.33325 16.4131 10.0892 12.1738 13.2148 9.04824C16.3404 5.92263 20.5796 4.16669 24.9999 4.16669C29.4202 4.16669 33.6594 5.92263 36.785 9.04824C39.9106 12.1738 41.6666 16.4131 41.6666 20.8334Z" stroke="" stroke-width="5" stroke-linecap="round" stroke-linejoin="round"/>
<path d="M25 27.0833C28.4518 27.0833 31.25 24.2851 31.25 20.8333C31.25 17.3815 28.4518 14.5833 25 14.5833C21.5482 14.5833 18.75 17.3815 18.75 20.8333C18.75 24.2851 21.5482 27.0833 25 27.0833Z" stroke="" stroke-width="5" stroke-linecap="round" stroke-linejoin="round"/>
</svg>
