<svg width="50" height="50" viewBox="0 0 50 50" fill="none" xmlns="http://www.w3.org/2000/svg">
<path d="M35.4165 6.24994C35.9471 5.62293 36.6034 5.11256 37.3436 4.75136C38.0838 4.39016 38.8917 4.18606 39.7158 4.15206C40.5398 4.11805 41.362 4.2549 42.1298 4.55387C42.8976 4.85285 43.5943 5.30739 44.1755 5.88853C44.7566 6.46967 45.2095 7.16465 45.5051 7.92919C45.8008 8.69374 45.9328 9.51106 45.8928 10.3291C45.8527 11.1471 45.6415 11.9478 45.2725 12.6803C44.9036 13.4127 44.385 14.0608 43.7498 14.5833L15.6248 42.7083L4.1665 45.8333L7.2915 34.3749L35.4165 6.24994Z" stroke="#1B262C" stroke-width="6" stroke-linecap="round" stroke-linejoin="round"/>
</svg>
